<mxfile host="app.diagrams.net" modified="2022-06-20T13:09:04.195Z" agent="5.0 (Macintosh; Intel Mac OS X 10_15_7) AppleWebKit/537.36 (KHTML, like Gecko) Chrome/102.0.0.0 Safari/537.36" etag="GXcuCIKhMsMh1zorR6Fe" version="20.0.1" type="github">
  <diagram id="3228e29e-7158-1315-38df-8450db1d8a1d" name="Page-1">
    <mxGraphModel dx="1998" dy="-302" grid="0" gridSize="10" guides="1" tooltips="1" connect="1" arrows="1" fold="1" page="1" pageScale="1" pageWidth="1000" pageHeight="140" background="#EFF1F3" math="0" shadow="0">
      <root>
        <mxCell id="0" />
        <mxCell id="1" parent="0" />
        <mxCell id="enQ5mk8d2TgNViefa5W4-2" value="&lt;font style=&quot;font-size: 15px;&quot;&gt;列1的值&lt;/font&gt;" style="rounded=0;whiteSpace=wrap;html=1;fillColor=#4A919B;gradientColor=none;fontSize=15;fontColor=#FFFFFF;" parent="1" vertex="1">
          <mxGeometry x="-317" y="955" width="88" height="48" as="geometry" />
        </mxCell>
        <mxCell id="enQ5mk8d2TgNViefa5W4-3" value="row_id" style="rounded=0;whiteSpace=wrap;html=1;fillColor=#9AC7BF;gradientColor=none;fontSize=15;" parent="1" vertex="1">
          <mxGeometry x="-405" y="955" width="88" height="48" as="geometry" />
        </mxCell>
        <mxCell id="enQ5mk8d2TgNViefa5W4-27" value="trx_id" style="rounded=0;whiteSpace=wrap;html=1;fillColor=#9AC7BF;gradientColor=none;fontSize=15;" parent="1" vertex="1">
          <mxGeometry x="-493" y="955" width="88" height="48" as="geometry" />
        </mxCell>
        <mxCell id="enQ5mk8d2TgNViefa5W4-28" value="roll_pointer" style="rounded=0;whiteSpace=wrap;html=1;fillColor=#9AC7BF;gradientColor=none;fontSize=15;" parent="1" vertex="1">
          <mxGeometry x="-581" y="955" width="88" height="48" as="geometry" />
        </mxCell>
        <mxCell id="zhEDYNHhuH8CSWy7WP_z-4" value="....." style="rounded=0;whiteSpace=wrap;html=1;fillColor=#4A919B;gradientColor=none;fontSize=15;fontColor=#FFFFFF;" parent="1" vertex="1">
          <mxGeometry x="-229" y="955" width="88" height="48" as="geometry" />
        </mxCell>
        <mxCell id="zhEDYNHhuH8CSWy7WP_z-5" value="&lt;font style=&quot;font-size: 15px;&quot;&gt;列n的值&lt;/font&gt;" style="rounded=0;whiteSpace=wrap;html=1;fillColor=#4A919B;gradientColor=none;fontSize=15;fontColor=#FFFFFF;" parent="1" vertex="1">
          <mxGeometry x="-141" y="955" width="88" height="48" as="geometry" />
        </mxCell>
        <mxCell id="zhEDYNHhuH8CSWy7WP_z-6" value="记录头信息" style="rounded=0;whiteSpace=wrap;html=1;fillColor=#535E80;gradientColor=none;fontSize=15;fontColor=#FFFFFF;" parent="1" vertex="1">
          <mxGeometry x="-688" y="955" width="107" height="48" as="geometry" />
        </mxCell>
        <mxCell id="zhEDYNHhuH8CSWy7WP_z-7" value="NULL值列表" style="rounded=0;whiteSpace=wrap;html=1;fillColor=#535E80;gradientColor=none;fontSize=15;fontColor=#FFFFFF;" parent="1" vertex="1">
          <mxGeometry x="-806" y="955" width="118" height="48" as="geometry" />
        </mxCell>
        <mxCell id="zhEDYNHhuH8CSWy7WP_z-8" value="变长字段长度列表" style="rounded=0;whiteSpace=wrap;html=1;fillColor=#535E80;gradientColor=none;fontSize=15;fontColor=#FFFFFF;" parent="1" vertex="1">
          <mxGeometry x="-947" y="955" width="141" height="48" as="geometry" />
        </mxCell>
        <mxCell id="zhEDYNHhuH8CSWy7WP_z-10" value="" style="shape=curlyBracket;whiteSpace=wrap;html=1;rounded=1;fillColor=#535E80;rotation=-90;strokeWidth=2;strokeColor=#535E80;" parent="1" vertex="1">
          <mxGeometry x="-774.5" y="841.5" width="20" height="367" as="geometry" />
        </mxCell>
        <mxCell id="zhEDYNHhuH8CSWy7WP_z-11" value="&lt;font color=&quot;#535e80&quot; style=&quot;font-size: 15px&quot;&gt;行记录的额外信息&lt;/font&gt;" style="text;html=1;strokeColor=none;fillColor=none;align=center;verticalAlign=middle;whiteSpace=wrap;rounded=0;" parent="1" vertex="1">
          <mxGeometry x="-826.5" y="1049" width="124" height="30" as="geometry" />
        </mxCell>
        <mxCell id="zhEDYNHhuH8CSWy7WP_z-12" value="" style="shape=curlyBracket;whiteSpace=wrap;html=1;rounded=1;fillColor=#9AC7BF;rotation=-90;strokeWidth=2;strokeColor=#4A919B;" parent="1" vertex="1">
          <mxGeometry x="-326" y="762" width="20" height="526" as="geometry" />
        </mxCell>
        <mxCell id="zhEDYNHhuH8CSWy7WP_z-13" value="&lt;font color=&quot;#4a919b&quot; style=&quot;font-size: 15px&quot;&gt;行记录的真实信息&lt;/font&gt;" style="text;html=1;strokeColor=none;fillColor=none;align=center;verticalAlign=middle;whiteSpace=wrap;rounded=0;" parent="1" vertex="1">
          <mxGeometry x="-380" y="1049" width="124" height="30" as="geometry" />
        </mxCell>
        <mxCell id="zhEDYNHhuH8CSWy7WP_z-14" value="" style="shape=curlyBracket;whiteSpace=wrap;html=1;rounded=1;flipH=1;fillColor=#9AC7BF;rotation=-90;strokeWidth=2;fontColor=#4A919B;strokeColor=#9AC7BF;" parent="1" vertex="1">
          <mxGeometry x="-459.5" y="804.5" width="20" height="265" as="geometry" />
        </mxCell>
        <mxCell id="zhEDYNHhuH8CSWy7WP_z-15" value="&lt;font style=&quot;font-size: 15px&quot;&gt;隐藏列&lt;/font&gt;" style="text;html=1;strokeColor=none;fillColor=none;align=center;verticalAlign=middle;whiteSpace=wrap;rounded=0;fontColor=#4A919B;" parent="1" vertex="1">
          <mxGeometry x="-511" y="896" width="124" height="30" as="geometry" />
        </mxCell>
        <mxCell id="8I4WOFmwV_ULC98WB_XN-1" value="" style="shape=curlyBracket;whiteSpace=wrap;html=1;rounded=1;flipH=1;fillColor=#9AC7BF;rotation=-90;strokeWidth=2;fontColor=#4A919B;strokeColor=#535E80;" vertex="1" parent="1">
          <mxGeometry x="-756.75" y="877.75" width="20" height="118.5" as="geometry" />
        </mxCell>
        <mxCell id="8I4WOFmwV_ULC98WB_XN-2" value="&lt;font color=&quot;#535e80&quot; style=&quot;font-size: 15px&quot;&gt;如果都为NOT NULL，就没有这一列&lt;/font&gt;" style="text;html=1;strokeColor=none;fillColor=none;align=center;verticalAlign=middle;whiteSpace=wrap;rounded=0;fontColor=#4A919B;" vertex="1" parent="1">
          <mxGeometry x="-871.13" y="895" width="248.75" height="30" as="geometry" />
        </mxCell>
      </root>
    </mxGraphModel>
  </diagram>
</mxfile>
